<?xml version="1.0" encoding="utf-8"?>
<!-- Generator: Adobe Illustrator 16.2.1, SVG Export Plug-In . SVG Version: 6.00 Build 0)  -->
<!DOCTYPE svg PUBLIC "-//W3C//DTD SVG 1.1//EN" "http://www.w3.org/Graphics/SVG/1.1/DTD/svg11.dtd">
<svg version="1.1" id="Layer_1" xmlns="http://www.w3.org/2000/svg" xmlns:xlink="http://www.w3.org/1999/xlink" x="0px" y="0px"
	 width="60.069px" height="60px" viewBox="0 0 60.069 60" enable-background="new 0 0 60.069 60" xml:space="preserve">
<path fill="#6948FF" d="M60.069,3.023l-1.715,1.715l-2.392-2.392l1.715-1.715L60.069,3.023z M15.637,41.693l3.206,3.207l38.19-38.19
	l-3.207-3.207L15.637,41.693z M7.337,50.972l2.391,2.391l7.067-7.066l-2.392-2.392L7.337,50.972z M4.435,54.852l1.414,1.414
	l1.88-1.88l-1.414-1.414L4.435,54.852z M2.062,56.554l0.366,0.99l-1.954,1.954L0.976,60l1.954-1.955l0.988,0.364l0.286-0.286
	l-1.856-1.856L2.062,56.554z M50.933,33.083l-3.208-3.208l-16.041,16.04l3.208,3.208l15.35-15.349l-0.031,0.031l0.749,0.749
	L38.635,46.878l0.749,0.749L52.43,34.581L50.933,33.083L50.933,33.083z M0.859,54.779l0.404-0.405v-2.366h4.001v-1.264H1.263v-2.948
	h1.896v-1.263H1.263v-2.948h4.001v-1.264H1.263v-3.158h1.896V37.9H1.263v-2.948h4.001v-1.264H1.263v-2.948h1.896v-1.263H1.263V26.53
	h4.001v-1.264H1.263v-2.948h1.896v-1.263H1.263v-2.948h4.001v-1.264H1.263v-2.948h1.896v-1.263H1.263V9.686h4.001V8.422H1.263V5.474
	h1.896V4.211H1.263V1.263h2.948v1.895h1.263V1.263h2.948v4h1.264v-4h2.948v1.895h1.263V1.263h2.948v4h1.264v-4h2.948v1.895h1.263
	V1.263h2.948v4h1.263v-4h2.948v1.895h1.263V1.263h2.948v4h1.263v-4H37.9v1.895h1.264V1.263h3.158v4h1.264v-4h2.948v1.895h1.263
	V1.263h6.282L55.331,0H0v55.638l0.573-0.573L0.859,54.779z M10.528,44.803l1.263-1.263V11.791h30.771l1.263-1.263H10.528V44.803z"/>
</svg>
