<?xml version="1.0" encoding="utf-8"?>
<!-- Generator: Adobe Illustrator 16.2.1, SVG Export Plug-In . SVG Version: 6.00 Build 0)  -->
<!DOCTYPE svg PUBLIC "-//W3C//DTD SVG 1.1//EN" "http://www.w3.org/Graphics/SVG/1.1/DTD/svg11.dtd">
<svg version="1.1" id="Layer_1" xmlns="http://www.w3.org/2000/svg" xmlns:xlink="http://www.w3.org/1999/xlink" x="0px" y="0px"
	 width="60px" height="60px" viewBox="0 0 60 60" enable-background="new 0 0 60 60" xml:space="preserve">
<path fill="#6948FF" d="M53.793,0C47.586,0,6.207,0,6.207,0S0,0,0,6.207c0,6.207,0,35.172,0,35.172s0,6.207,6.207,6.207h47.586
	c0,0,6.207,0,6.207-6.207c0-6.206,0-35.172,0-35.172S60,0,53.793,0z M58.345,41.379c0,1.887-0.689,3.166-2.105,3.909
	c-1.184,0.62-2.443,0.643-2.446,0.643H6.207c-1.887,0-3.165-0.688-3.908-2.105c-0.621-1.184-0.644-2.443-0.644-2.446V6.207
	c0-1.887,0.688-3.165,2.106-3.908c1.184-0.621,2.443-0.644,2.446-0.644h47.586c1.887,0,3.166,0.688,3.909,2.106
	c0.621,1.184,0.643,2.443,0.643,2.446V41.379z M4.138,37.241h51.725V4.138H4.138V37.241z M5.793,5.793h48.414v29.793H5.793V5.793z
	 M43.907,58.483l-6.024-4.016l-1.971-3.941c-0.14-0.28-0.427-0.457-0.74-0.457H24.828c-0.313,0-0.6,0.177-0.74,0.457l-1.971,3.941
	l-6.024,4.016c-0.304,0.203-0.439,0.58-0.333,0.929C15.865,59.761,16.187,60,16.552,60h26.896c0.365,0,0.687-0.239,0.792-0.588
	C44.346,59.063,44.211,58.687,43.907,58.483z M19.285,58.345l3.933-2.622c0.12-0.08,0.217-0.189,0.281-0.318l1.84-3.68h9.322
	l1.84,3.68c0.064,0.129,0.162,0.238,0.281,0.318l3.933,2.622H19.285z M12.546,19.122l14.765-6.588v3.112l-11.752,5.032l11.752,4.966
	v3.112l-14.765-6.588V19.122z M32.541,12.534l14.765,6.588v3.045l-14.765,6.588v-3.112l11.752-4.966l-11.752-5.032V12.534z"/>
</svg>
